HIERARCHY
ROOT Hips
{
	OFFSET -0.001795 -0.223333 0.028219
	CHANNELS 6 Xposition Yposition Zposition Zrotation Yrotation Xrotation 
	JOINT LeftUpLeg
	{
		OFFSET 0.069520 -0.091406 -0.006815
		CHANNELS 3 Zrotation Yrotation Xrotation
		JOINT LeftLeg
		{
			OFFSET 0.034277 -0.375199 -0.004496
			CHANNELS 3 Zrotation Yrotation Xrotation
			JOINT LeftFoot
			{
				OFFSET -0.013596 -0.397961 -0.043693
				CHANNELS 3 Zrotation Yrotation Xrotation
				JOINT LeftToe
				{
					OFFSET 0.026358 -0.055791 0.119288
					CHANNELS 3 Zrotation Yrotation Xrotation
					End Site
					{
						OFFSET 0.000000 0.000000 0.000000
					}
				}
			}
		}
	}
	JOINT RightUpLeg
	{
		OFFSET -0.067670 -0.090522 -0.004320
		CHANNELS 3 Zrotation Yrotation Xrotation
		JOINT RightLeg
		{
			OFFSET -0.038290 -0.382569 -0.008850
			CHANNELS 3 Zrotation Yrotation Xrotation
			JOINT RightFoot
			{
				OFFSET 0.015774 -0.398415 -0.042312
				CHANNELS 3 Zrotation Yrotation Xrotation
				JOINT RightToe
				{
					OFFSET -0.025372 -0.048144 0.123348
					CHANNELS 3 Zrotation Yrotation Xrotation
					End Site
					{
						OFFSET 0.000000 0.000000 0.000000
					}
				}
			}
		}
	}
	JOINT Spine
	{
		OFFSET -0.002533 0.108963 -0.026696
		CHANNELS 3 Zrotation Yrotation Xrotation
		JOINT Spine1
		{
			OFFSET 0.005487 0.135180 0.001092
			CHANNELS 3 Zrotation Yrotation Xrotation
			JOINT Spine2
			{
				OFFSET 0.001457 0.052922 0.025425
				CHANNELS 3 Zrotation Yrotation Xrotation
				JOINT Neck
				{
					OFFSET -0.002778 0.213870 -0.042857
					CHANNELS 3 Zrotation Yrotation Xrotation
					JOINT Head
					{
						OFFSET 0.005152 0.064970 0.051349
						CHANNELS 3 Zrotation Yrotation Xrotation
						End Site
						{
							OFFSET 0.000000 0.000000 0.000000
						}
					}
				}
				JOINT LeftShoulder
				{
					OFFSET 0.078845 0.121749 -0.034090
					CHANNELS 3 Zrotation Yrotation Xrotation
					JOINT LeftArm
					{
						OFFSET 0.090977 0.030469 -0.008868
						CHANNELS 3 Zrotation Yrotation Xrotation
						JOINT LeftForeArm
						{
							OFFSET 0.259612 -0.012772 -0.027456
							CHANNELS 3 Zrotation Yrotation Xrotation
							JOINT LeftHand
							{
								OFFSET 0.249234 0.008986 -0.001171
								CHANNELS 3 Zrotation Yrotation Xrotation
								End Site
								{
									OFFSET 0.000000 0.000000 0.000000
								}
							}
						}
					}
				}
				JOINT RightShoulder
				{
					OFFSET -0.081759 0.118833 -0.038615
					CHANNELS 3 Zrotation Yrotation Xrotation
					JOINT RightArm
					{
						OFFSET -0.096012 0.032551 -0.009143
						CHANNELS 3 Zrotation Yrotation Xrotation
						JOINT RightForeArm
						{
							OFFSET -0.253742 -0.013329 -0.021401
							CHANNELS 3 Zrotation Yrotation Xrotation
							JOINT RightHand
							{
								OFFSET -0.255298 0.007772 -0.005559
								CHANNELS 3 Zrotation Yrotation Xrotation
								End Site
								{
									OFFSET 0.000000 0.000000 0.000000
								}
							}
						}
					}
				}
			}
		}
	}
}
MOTION
Frames: 11
Frame Time: 0.050000
0.000000 0.951261 0.000000 2.202797 -4.404530 3.137650 2.123668 -0.368582 -4.620936 -2.528722 0.311499 -1.183952 8.447310 17.813207 17.295752 0.000000 0.000000 0.000000 -9.505741 0.497092 -5.318128 3.132146 -0.244644 3.468063 -6.862985 -17.907365 10.319415 0.000000 0.000000 0.000000 8.667430 -1.403001 11.264090 -3.509379 1.376665 -24.641615 1.426436 9.962146 24.163755 5.137892 0.355265 -30.610768 0.000000 0.000000 0.000000 20.961894 -17.312556 4.392892 16.115628 -33.045009 -5.996257 64.077479 -14.331304 -10.903587 0.000000 0.000000 0.000000 8.842883 11.286472 5.370398 30.804686 44.165952 6.247666 99.633137 68.853267 85.786594 0.000000 0.000000 0.000000 
0.001053 0.952944 0.000124 1.829984 -4.086795 3.546732 1.729574 -0.399677 -4.849966 -1.777072 0.237726 -1.713831 8.872838 18.446104 16.376275 0.000000 0.000000 0.000000 -9.188042 0.513579 -6.129134 3.167523 -0.253125 3.405024 -6.858004 -18.058502 12.332572 0.000000 0.000000 0.000000 7.705737 -1.274574 10.867258 -0.960319 0.768529 -24.021389 -0.658381 8.570079 23.683374 5.275076 0.235459 -31.862264 0.000000 0.000000 0.000000 21.291260 -16.697811 4.109167 19.861279 -35.200344 -7.322144 59.052431 -14.702900 -9.660474 0.000000 0.000000 0.000000 10.800041 12.623610 6.108667 30.279222 41.267948 5.149662 105.648398 65.356004 87.674694 0.000000 0.000000 0.000000 
0.001518 0.953662 -0.000276 1.462586 -4.296295 3.906791 2.502111 -0.386053 -4.980482 -2.021331 0.254055 -1.119634 8.073908 17.298687 17.448084 0.000000 0.000000 0.000000 -9.218521 0.543334 -6.952457 4.163250 -0.369369 3.972811 -7.498710 -19.186117 12.221321 0.000000 0.000000 0.000000 8.801199 -1.335318 10.240779 -2.209177 1.057069 -23.616065 -0.689803 7.233912 23.672151 4.161079 0.298712 -29.043283 0.000000 0.000000 0.000000 21.824976 -17.178616 3.850869 21.229166 -35.930111 -7.619136 56.321982 -18.197357 -10.536378 0.000000 0.000000 0.000000 10.210673 12.593904 5.786675 32.456658 35.657517 4.149032 104.849509 59.518168 79.653057 0.000000 0.000000 0.000000 
0.001443 0.953501 -0.001118 1.495191 -4.136521 4.017669 2.933773 -0.390075 -5.231592 -2.672837 0.329632 -1.697555 8.980431 18.596904 18.781123 0.000000 0.000000 0.000000 -9.183477 0.545986 -7.115651 3.906321 -0.342491 3.503289 -7.918861 -19.947925 13.341224 0.000000 0.000000 0.000000 8.500584 -1.338658 10.519552 -1.909874 0.985370 -23.434041 -1.131192 6.682947 24.130387 5.154493 -0.304184 -29.144359 0.000000 0.000000 0.000000 23.829892 -17.799638 3.609525 21.587203 -36.504191 -7.807539 56.592114 -20.987189 -11.949270 0.000000 0.000000 0.000000 10.754177 11.744127 5.410898 32.987175 33.071476 3.482497 104.157680 54.901914 73.377078 0.000000 0.000000 0.000000 
0.000989 0.953751 -0.002259 1.866862 -3.288526 3.997213 2.780655 -0.392382 -5.122816 -2.987101 0.352162 -0.991644 8.145951 17.523439 17.965838 0.000000 0.000000 0.000000 -9.401842 0.512812 -6.710393 3.899879 -0.359337 2.506480 -8.094296 -20.177935 13.543053 0.000000 0.000000 0.000000 8.515571 -1.398521 10.948780 -2.469387 1.131806 -23.181975 -1.273954 5.067265 24.235637 4.628054 -0.252089 -28.792608 0.000000 0.000000 0.000000 22.014830 -19.024335 3.774269 21.922680 -37.602650 -8.060901 57.606020 -28.278939 -15.870809 0.000000 0.000000 0.000000 11.237988 10.491145 4.737873 32.614965 28.570680 2.150563 108.843219 53.563110 76.092383 0.000000 0.000000 0.000000 
0.000054 0.953703 -0.003631 2.095803 -3.126732 4.523216 3.083146 -0.421879 -5.657371 -3.443997 0.400435 -1.197741 8.736869 18.385313 19.745133 0.000000 0.000000 0.000000 -9.249543 0.525726 -6.905232 3.172360 -0.283045 1.881669 -8.126642 -20.230753 13.850547 0.000000 0.000000 0.000000 7.969972 -1.401559 11.429269 -1.740964 0.949344 -22.720546 -1.845405 4.425085 23.885247 4.420667 -0.219718 -28.746577 0.000000 0.000000 0.000000 20.565511 -19.399240 3.958053 20.025175 -40.290875 -8.351470 63.156796 -37.471582 -23.112196 0.000000 0.000000 0.000000 12.144455 9.584392 4.312897 32.561290 24.850663 1.193963 111.648872 52.315114 77.249659 0.000000 0.000000 0.000000 
-0.001149 0.953425 -0.005226 2.144612 -3.587205 4.803368 3.201456 -0.428622 -5.833391 -3.565278 0.415841 -0.941961 8.855256 18.489982 19.685721 0.000000 0.000000 0.000000 -9.274861 0.550843 -7.264863 3.245981 -0.288857 1.738916 -8.147036 -20.303766 13.799305 0.000000 0.000000 0.000000 7.856188 -1.424334 11.784518 -1.897929 0.976742 -22.551003 -2.028058 3.686611 24.323012 4.606379 -0.421084 -29.481619 0.000000 0.000000 0.000000 17.313006 -20.918570 4.510885 16.812123 -41.405072 -7.624434 70.918289 -47.207398 -33.347777 0.000000 0.000000 0.000000 12.545510 7.761127 3.307821 33.287602 21.728252 0.449928 114.152164 51.743383 78.767005 0.000000 0.000000 0.000000 
-0.002857 0.953385 -0.006773 2.151826 -4.155259 5.579512 3.394618 -0.472753 -6.643452 -3.736560 0.438124 -0.959076 9.113451 18.771968 19.825204 0.000000 0.000000 0.000000 -9.027561 0.609264 -8.278247 2.554458 -0.201254 2.091894 -7.549403 -19.319067 12.853851 0.000000 0.000000 0.000000 7.937817 -1.446819 11.789047 -1.970009 0.981211 -22.344816 -3.000484 2.710559 24.237644 4.208593 -0.463601 -28.883470 0.000000 0.000000 0.000000 14.612652 -22.027927 5.044647 9.756659 -42.702866 -5.762181 84.639753 -58.187092 -50.967263 0.000000 0.000000 0.000000 12.484360 6.595385 2.514488 34.341913 18.302219 -0.277172 116.627047 52.720126 82.005240 0.000000 0.000000 0.000000 
-0.004646 0.952771 -0.008330 2.126742 -5.169059 6.363904 3.854487 -0.474614 -7.060213 -4.074601 0.482328 -1.484410 9.562813 19.253159 20.420229 0.000000 0.000000 0.000000 -8.776584 0.686129 -9.386324 1.927236 -0.121284 2.227280 -7.259642 -18.938112 13.012910 0.000000 0.000000 0.000000 7.890845 -1.397499 11.298945 -1.950944 0.938853 -21.294621 -4.136175 1.918029 23.960320 4.237009 -0.636226 -29.356300 0.000000 0.000000 0.000000 10.524347 -22.792415 5.896863 2.430838 -43.824854 -3.720605 105.374306 -68.427308 -78.745210 0.000000 0.000000 0.000000 13.330801 5.002232 1.475723 34.851650 14.518501 -1.125114 117.918556 52.666981 82.378587 0.000000 0.000000 0.000000 
-0.006488 0.952509 -0.009880 2.059780 -5.732998 6.687543 4.502343 -0.458078 -7.410323 -4.535241 0.536491 -1.666368 9.889380 19.604377 21.064165 0.000000 0.000000 0.000000 -8.540255 0.723313 -9.717956 1.435662 -0.056716 2.459817 -6.841689 -18.307360 13.295729 0.000000 0.000000 0.000000 8.082052 -1.448620 11.570264 -1.860026 0.901246 -21.202826 -5.402616 0.693190 24.539557 3.760430 -0.593566 -29.916017 0.000000 0.000000 0.000000 5.625446 -25.284061 7.577817 -5.891991 -43.541541 -1.286737 135.525436 -76.782555 -118.893735 0.000000 0.000000 0.000000 14.034812 4.280171 0.793257 35.377117 11.240278 -1.901839 114.889552 55.262154 81.109165 0.000000 0.000000 0.000000 
-0.008065 0.952384 -0.011702 1.967601 -6.446131 7.332245 4.864078 -0.463606 -7.996959 -4.806079 0.573170 -1.633788 10.453510 20.262700 21.138966 0.000000 0.000000 0.000000 -8.375204 0.785020 -10.525814 1.287937 -0.044395 2.230024 -5.974796 -16.974627 13.765859 0.000000 0.000000 0.000000 8.401918 -1.484763 11.459589 -2.066921 0.930848 -20.614888 -6.778606 -0.703854 24.771945 4.182636 -0.966612 -31.339720 0.000000 0.000000 0.000000 0.931798 -27.235279 9.471944 -14.119156 -44.505710 1.147319 -169.223025 -83.873589 175.403265 0.000000 0.000000 0.000000 15.394452 3.937310 0.126676 35.893553 9.079198 -2.346161 107.198197 59.043756 76.314213 0.000000 0.000000 0.000000 
